<mxfile host="65bd71144e">
    <diagram id="cMqLYs2qi6pUz71aRM7K" name="Page-1">
        <mxGraphModel dx="175" dy="446" grid="1" gridSize="10" guides="1" tooltips="1" connect="1" arrows="1" fold="1" page="1" pageScale="1" pageWidth="850" pageHeight="1100" background="#ffffff" math="0" shadow="0">
            <root>
                <mxCell id="0"/>
                <mxCell id="1" parent="0"/>
                <mxCell id="2" value="Script Behavior" style="swimlane;rounded=0;whiteSpace=wrap;html=1;" parent="1" vertex="1">
                    <mxGeometry x="100" y="50" width="400" height="560" as="geometry"/>
                </mxCell>
                <mxCell id="3" value="Attributes:&#xa;- Configurations (MQTT, topics, city, etc.)&#xa;- MQTT Client&#xa;- Greenhouse Object&#xa;- Simulation Iterations" style="text;whiteSpace=wrap;html=1;" parent="2" vertex="1">
                    <mxGeometry y="30" width="400" height="180" as="geometry"/>
                </mxCell>
                <mxCell id="4" value="Methods:&#xa;- Load Configuration&#xa;- Initialize MQTT&#xa;- Setup Greenhouse&#xa;- Run Simulation Loop&#xa;- Stop MQTT" style="text;whiteSpace=wrap;html=1;" parent="2" vertex="1">
                    <mxGeometry y="210" width="400" height="160" as="geometry"/>
                </mxCell>
                <mxCell id="5" value="Block Diagram: Script Behavior" style="rounded=0;whiteSpace=wrap;html=1;verticalAlign=top;" parent="1" vertex="1">
                    <mxGeometry x="550" y="120" width="600" height="760" as="geometry"/>
                </mxCell>
                <mxCell id="6" value="Load Configurations&#xa;- Read YAML File&#xa;- Parse Topics and City" style="rounded=1;whiteSpace=wrap;html=1;" parent="5" vertex="1">
                    <mxGeometry x="50" y="50" width="240" height="80" as="geometry"/>
                </mxCell>
                <mxCell id="7" value="Initialize MQTT&#xa;- Setup Client&#xa;- Connect to Broker&#xa;- Assign Topics" style="rounded=1;whiteSpace=wrap;html=1;" parent="5" vertex="1">
                    <mxGeometry x="320" y="140" width="240" height="100" as="geometry"/>
                </mxCell>
                <mxCell id="8" style="edgeStyle=orthogonalEdgeStyle;rounded=1;" parent="5" source="6" target="7" edge="1">
                    <mxGeometry relative="1" as="geometry"/>
                </mxCell>
                <mxCell id="9" value="Create Greenhouse Object&#xa;- Fetch Outside Temp&#xa;- Initialize Attributes" style="rounded=1;whiteSpace=wrap;html=1;" parent="5" vertex="1">
                    <mxGeometry x="50" y="280" width="240" height="80" as="geometry"/>
                </mxCell>
                <mxCell id="10" style="edgeStyle=orthogonalEdgeStyle;rounded=1;" parent="5" source="7" target="9" edge="1">
                    <mxGeometry relative="1" as="geometry"/>
                </mxCell>
                <mxCell id="11" value="Simulation Loop&#xa;- predict_system()&#xa;- publish_digital_twin()&#xa;- Sleep 1 second" style="rounded=1;whiteSpace=wrap;html=1;" parent="5" vertex="1">
                    <mxGeometry x="320" y="270" width="240" height="100" as="geometry"/>
                </mxCell>
                <mxCell id="12" style="edgeStyle=orthogonalEdgeStyle;rounded=1;" parent="5" source="9" target="11" edge="1">
                    <mxGeometry relative="1" as="geometry"/>
                </mxCell>
                <mxCell id="13" value="Stop MQTT Client&#xa;- Disconnect from Broker&#xa;- Cleanup Resources" style="rounded=1;whiteSpace=wrap;html=1;" parent="5" vertex="1">
                    <mxGeometry x="320" y="430" width="240" height="80" as="geometry"/>
                </mxCell>
                <mxCell id="14" style="edgeStyle=orthogonalEdgeStyle;rounded=1;" parent="5" source="11" target="13" edge="1">
                    <mxGeometry relative="1" as="geometry"/>
                </mxCell>
            </root>
        </mxGraphModel>
    </diagram>
</mxfile>